<?xml version="1.0" encoding="iso-8859-1"?>
<!-- Generator: Adobe Illustrator 19.0.0, SVG Export Plug-In . SVG Version: 6.00 Build 0)  -->
<svg version="1.1" id="Layer_1" xmlns="http://www.w3.org/2000/svg" xmlns:xlink="http://www.w3.org/1999/xlink" x="0px" y="0px"
	 viewBox="0 0 511.999 511.999" style="enable-background:new 0 0 511.999 511.999;" xml:space="preserve">
<circle style="fill:#FFFFFF;" cx="31.854" cy="252.085" r="24.015"/>
<g>
	<rect x="31.854" y="220.057" style="fill:#E30613;" width="64.046" height="48.032"/>
	<polygon style="fill:#E30613;" points="255.999,164.022 135.921,164.022 119.911,132.001 231.984,132.001 	"/>
</g>
<g>
	<path style="fill:#F9B233;" d="M440.12,132.001h-36.891c-1.732,0-3.135-1.403-3.135-3.135V87.104c0-1.731,1.403-3.135,3.135-3.135
		h36.891L440.12,132.001L440.12,132.001z"/>
	<path style="fill:#F9B233;" d="M408.1,228.064c0,0,25.799,42.716,20.013,43.818s-44.029,12.219-44.029,12.219l-8.005-16.011
		v-32.021L408.1,228.064z"/>
	<polygon style="fill:#F9B233;" points="504.162,356.148 344.057,356.148 352.063,316.122 384.083,284.101 408.1,276.096 
		456.131,276.096 488.152,300.111 	"/>
	<path style="fill:#F9B233;" d="M175.947,196.043h76.633c1.888,0,3.419,1.531,3.419,3.419v156.685H15.843l0,0
		C15.843,267.724,87.524,196.043,175.947,196.043z"/>
</g>
<path style="fill:#575756;" d="M496.157,356.148c0,39.791-32.257,72.047-72.047,72.047s-72.047-32.257-72.047-72.047"/>
<path style="fill:#FFFFFF;" d="M464.136,356.148c0,22.106-17.92,40.026-40.026,40.026s-40.026-17.92-40.026-40.026"/>
<path style="fill:#575756;" d="M199.964,356.148c0,39.791-32.257,72.047-72.047,72.047S55.87,395.938,55.87,356.148"/>
<path style="fill:#FFFFFF;" d="M167.942,356.148c0,22.106-17.92,40.026-40.026,40.026s-40.026-17.92-40.026-40.026"/>
<g>
	<rect x="344.053" y="324.124" style="fill:#E30613;" width="160.109" height="32.021"/>
	<rect x="15.842" y="324.124" style="fill:#E30613;" width="240.153" height="32.021"/>
</g>
<rect x="79.887" y="316.287" style="fill:#1D1D1B;" width="96.063" height="15.674"/>
<g>
	<rect x="215.972" y="220.224" style="fill:#FFFFFF;" width="16.011" height="15.674"/>
	<rect x="191.959" y="220.224" style="fill:#FFFFFF;" width="16.011" height="15.674"/>
	<rect x="167.946" y="220.224" style="fill:#FFFFFF;" width="16.011" height="15.674"/>
</g>
<g>
	<rect x="376.081" y="316.287" style="fill:#1D1D1B;" width="96.063" height="15.674"/>
	<rect x="432.279" y="75.967" style="fill:#1D1D1B;" width="15.674" height="64.046"/>
	<rect x="456.303" y="91.976" style="fill:#1D1D1B;" width="15.674" height="32.022"/>
	<rect x="272.013" y="100.147" style="fill:#1D1D1B;" width="48.032" height="15.674"/>
	<path style="fill:#1D1D1B;" d="M344.614,363.985c3.951,40.384,38.092,72.047,79.495,72.047s75.544-31.664,79.495-72.047h8.394
		v-12.051c0-46.123-35.721-84.036-80.947-87.591l-17.646-44.117h-29.491V115.823h9.32c3.502,13.786,16.015,24.015,30.874,24.015
		v-15.674c-8.921,0-16.178-7.257-16.178-16.178s7.257-16.178,16.178-16.178V76.133c-14.859,0-27.374,10.229-30.874,24.015h-41.172
		v15.674h16.178v168.278h0.044c-18.697,15.414-30.92,38.397-31.974,64.21h-72.475V215.576c0-11.04-6.575-20.568-16.011-24.891
		V171.86h16.011v-7.837c0-21.978-17.88-39.858-39.858-39.858H112.073v7.837c0,21.978,17.88,39.858,39.859,39.858h8.173v17.1
		c-30.443,2.862-58.547,13.88-82.099,30.847l-53.99-8.998v10.397C10.229,224.707,0,237.22,0,252.079
		c0,14.859,10.229,27.374,24.015,30.874v1.146h0.25c-10.418,21.845-16.26,46.276-16.26,72.047v7.837H48.42
		c3.951,40.384,38.092,72.047,79.495,72.047s75.544-31.664,79.495-72.047h137.203V363.985z M248.162,316.29h-41.954
		c-14.557-28.477-44.175-48.032-78.293-48.032S64.18,287.813,49.623,316.29H28.98c17.563-64.69,76.794-112.409,146.967-112.409
		h60.52c6.448,0,11.695,5.247,11.695,11.695V316.29z M56.133,348.311c3.92-36.146,34.612-64.378,71.782-64.378
		s67.863,28.232,71.782,64.378H56.133z M135.754,372.158v-8.174h23.382c-3.509,13.973-16.173,24.352-31.219,24.352
		s-27.71-10.379-31.22-24.352h23.383v8.174H135.754z M129.051,139.838h94.928c10.593,0,19.617,6.847,22.88,16.346h-94.927
		C141.339,156.184,132.315,149.338,129.051,139.838z M175.779,171.859h56.372v16.347h-56.205c-0.056,0-0.112,0.002-0.168,0.002
		v-16.349H175.779z M61.88,233.009c-8.197,7.598-15.636,15.999-22.19,25.081v-28.779L61.88,233.009z M15.674,252.079
		c0-6.079,3.372-11.379,8.341-14.142v28.286C19.046,263.458,15.674,258.158,15.674,252.079z M25.61,331.964h17.827
		c-1.51,5.267-2.543,10.729-3.043,16.346H23.879C24.161,342.779,24.75,337.326,25.61,331.964z M127.917,420.358
		c-32.751,0-59.834-24.653-63.714-56.372h16.503c3.752,22.676,23.489,40.026,47.211,40.026s43.459-17.351,47.21-40.026h16.504
		C187.751,395.705,160.668,420.358,127.917,420.358z M215.437,348.311c-0.499-5.618-1.533-11.08-3.043-16.346h35.768v16.346H215.437
		z M383.915,235.901h18.877l11.483,28.708c-10.835,1.212-21.074,4.408-30.36,9.205L383.915,235.901L383.915,235.901z
		 M424.109,279.72c38.604,0,70.232,30.449,72.125,68.591H360.068h-8.084C353.878,310.168,385.506,279.72,424.109,279.72z
		 M431.947,372.158v-8.174h23.382c-3.509,13.973-16.173,24.352-31.219,24.352s-27.71-10.379-31.219-24.352h23.382v8.174H431.947z
		 M424.109,420.358c-32.751,0-59.834-24.653-63.714-56.372h16.504c3.752,22.676,23.489,40.026,47.21,40.026
		s43.459-17.351,47.21-40.026h16.504C483.944,395.705,456.861,420.358,424.109,420.358z"/>
	<polygon style="fill:#1D1D1B;" points="343.89,139.838 296.026,139.838 296.026,124.164 328.216,124.164 328.216,91.975 
		343.89,91.975 	"/>
	<polygon style="fill:#1D1D1B;" points="359.9,235.901 336.053,235.901 336.053,220.227 344.225,220.227 344.225,188.038 
		359.9,188.038 	"/>
</g>
<g>
</g>
<g>
</g>
<g>
</g>
<g>
</g>
<g>
</g>
<g>
</g>
<g>
</g>
<g>
</g>
<g>
</g>
<g>
</g>
<g>
</g>
<g>
</g>
<g>
</g>
<g>
</g>
<g>
</g>
</svg>
